<svg viewBox="0 0 24 24" xml:space="preserve" xmlns="http://www.w3.org/2000/svg"><path d="M21 11V7c0-.6-.4-1-1-1h-5.1l-3.5-3.5c-.3-.3-.6-.5-1.4-.5H1c-.6 0-1 .4-1 1s.4 1 1 1h9l2 2H1c-.6 0-1 .4-1 1v16c0 .6.4 1 1 1h19c.6 0 1-.4 1-1v-4l3 1V10l-3 1zm-2 11H2V8h17v14zm4-3.3-2-.7v-6l2-.7v7.4z" fill="#e51c44" class="fill-000000"></path><path d="M8 18c2.2 0 4-1.8 4-4s-1.8-4-4-4-4 1.8-4 4 1.8 4 4 4zm0-7c1.7 0 3 1.3 3 3s-1.3 3-3 3-3-1.3-3-3 1.3-3 3-3zM16 9h2v2h-2z" fill="#e51c44" class="fill-000000"></path></svg>